<svg width="20" height="19" viewBox="0 0 20 19" fill="none" xmlns="http://www.w3.org/2000/svg">
<g clip-path="url(#clip0_22_1271)">
<g clip-path="url(#clip1_22_1271)">
<g clip-path="url(#clip2_22_1271)">
<path d="M13.3598 8.7095C13.3598 11.8977 10.3691 14.4824 6.67988 14.4824C2.99067 14.4824 0 11.8977 0 8.7095C0 5.5213 2.99067 2.93677 6.67988 2.93677C10.3691 2.93677 13.3598 5.5213 13.3598 8.7095Z" fill="#4B5563" fill-opacity="0.1"/>
<path d="M17.3312 5.05024C17.3312 5.80855 16.6198 6.4233 15.7421 6.4233C14.8647 6.4233 14.1533 5.80855 14.1533 5.05024C14.1533 4.29175 14.8647 3.677 15.7421 3.677C16.6198 3.677 17.3312 4.29175 17.3312 5.05024Z" fill="#4B5563"/>
<path d="M15.7429 6.73532C14.6678 6.73532 13.793 5.97951 13.793 5.05016C13.793 4.1208 14.6678 3.36499 15.7429 3.36499C16.8179 3.36499 17.6929 4.1208 17.6929 5.05016C17.6929 5.97951 16.8179 6.73532 15.7429 6.73532ZM15.7429 3.98903C15.0659 3.98903 14.5151 4.46504 14.5151 5.05016C14.5151 5.63527 15.0659 6.11129 15.7429 6.11129C16.4198 6.11129 16.9706 5.63527 16.9706 5.05016C16.9706 4.46504 16.4198 3.98903 15.7429 3.98903Z" fill="#4B5563"/>
<path d="M10.9771 10.9277L13.0874 7.73634C13.4444 7.1964 14.1731 6.92768 14.8712 7.07838C15.9175 7.30442 16.4136 8.33984 15.8588 9.13886L12.9905 13.2701C12.4514 14.0467 11.3314 14.3597 10.3682 14.0029L6.99219 12.7527C6.59054 12.6038 6.12298 12.7168 5.86885 13.0243L2.97818 16.5217C2.57096 17.0144 1.74927 17.0731 1.25403 16.6451C0.855068 16.3003 0.810027 15.7545 1.14866 15.3645L4.66928 11.3079C5.15522 10.7478 6.0017 10.5192 6.77029 10.7406L9.31943 11.475C9.95227 11.6573 10.6461 11.4282 10.9771 10.9277Z" fill="#4B5563"/>
<path d="M2.05499 17.2441C1.66016 17.2441 1.28083 17.1093 0.999014 16.8656C0.4765 16.4139 0.416583 15.6881 0.860173 15.1772L4.381 11.1205C4.96074 10.4521 5.96652 10.18 6.8849 10.4446L9.43425 11.1788C9.90221 11.3139 10.4194 11.143 10.6638 10.7729L12.7741 7.58133C13.2092 6.92302 14.1084 6.5918 14.959 6.77571C15.5697 6.90748 16.0581 7.27137 16.2992 7.77417C16.5402 8.27679 16.4928 8.83262 16.1689 9.29935L13.3003 13.4308C12.6716 14.3364 11.3503 14.7066 10.2262 14.2896L6.8506 13.0394C6.60473 12.9486 6.31672 13.0189 6.16342 13.2057L3.27233 16.7031C3.01635 17.0129 2.618 17.2084 2.17937 17.2397C2.13764 17.2427 2.09632 17.2441 2.05499 17.2441ZM6.17437 10.969C5.70495 10.969 5.25144 11.1571 4.95847 11.495L1.43765 15.5518C1.20852 15.8157 1.23951 16.1909 1.50955 16.4244C1.6707 16.5637 1.89508 16.6333 2.11966 16.6178C2.34631 16.6015 2.55271 16.5005 2.68494 16.3403L5.57561 12.843C5.92499 12.4193 6.58159 12.2617 7.13469 12.4657L10.5105 13.7161C11.3049 14.0097 12.2375 13.7492 12.6811 13.1096L15.5495 8.97832C15.7544 8.68299 15.7844 8.33125 15.6321 8.01307C15.4794 7.69507 15.1705 7.46474 14.784 7.38118C14.2456 7.26512 13.6763 7.47456 13.4011 7.89112L11.2906 11.0825C10.876 11.7099 10.0001 12.0001 9.20574 11.771L6.65618 11.0366C6.49771 10.9909 6.33511 10.969 6.17437 10.969Z" fill="#4B5563"/>
<path d="M18.124 7.78846L19.4798 6.45701C19.7249 6.2165 19.6811 5.84672 19.3848 5.65424C19.1191 5.4814 18.7441 5.51461 18.5245 5.7303L17.1685 7.06176C16.9237 7.30227 16.9672 7.67205 17.2635 7.86453C17.5294 8.03736 17.9042 8.00433 18.124 7.78846Z" fill="#4B5563"/>
<path d="M17.645 8.28559C17.4357 8.28559 17.2252 8.22935 17.0475 8.114C16.826 7.97009 16.6828 7.75101 16.6545 7.513C16.6264 7.27499 16.7149 7.03538 16.8979 6.85557L18.2539 5.52412C18.5962 5.18809 19.1884 5.13559 19.6024 5.40467C19.8237 5.54858 19.9669 5.76748 19.9952 6.00549C20.0235 6.2435 19.9349 6.4833 19.752 6.6631L18.3958 7.99455C18.2006 8.18614 17.9237 8.28559 17.645 8.28559ZM19.0033 5.85587C18.9264 5.85587 18.8504 5.88336 18.7965 5.93639L17.4403 7.26767C17.3892 7.31802 17.3651 7.38266 17.3729 7.44926C17.381 7.51604 17.4194 7.57478 17.4816 7.61513C17.5958 7.68959 17.7591 7.67512 17.8535 7.5821L19.2097 6.25082C19.2607 6.20047 19.2847 6.13584 19.277 6.06924C19.2688 6.00246 19.2303 5.94371 19.1683 5.90336C19.1194 5.8714 19.0611 5.85587 19.0033 5.85587Z" fill="#4B5563"/>
<path d="M10.5394 10.0811L12.8039 15.4626C12.9245 15.7495 12.6789 16.0529 12.3256 16.0529C12.1115 16.0529 11.9204 15.9372 11.8473 15.7633L9.58282 10.3818C9.46216 10.0949 9.70802 9.7915 10.0611 9.7915C10.2752 9.79168 10.4665 9.90738 10.5394 10.0811Z" fill="white"/>
<path d="M12.325 16.365C11.9607 16.365 11.632 16.1661 11.5072 15.8704L9.2428 10.4884C9.1459 10.258 9.18494 10.0009 9.34775 9.80024C9.51035 9.59937 9.77709 9.47974 10.0606 9.47974C10.4248 9.47974 10.7535 9.67846 10.8783 9.97432L13.1427 15.3562C13.2396 15.5865 13.2006 15.8438 13.0376 16.0443C12.8752 16.2452 12.6085 16.365 12.325 16.365ZM10.0606 10.1038C9.99361 10.1038 9.9558 10.1379 9.93927 10.1582C9.92275 10.1786 9.89878 10.2209 9.9213 10.275L12.1857 15.6567C12.207 15.707 12.263 15.7408 12.3252 15.7408C12.3921 15.7408 12.4297 15.7067 12.4465 15.6861C12.463 15.666 12.487 15.6237 12.4645 15.5694L10.1998 10.188C10.1787 10.1375 10.1225 10.1038 10.0606 10.1038Z" fill="white"/>
<path d="M12.5431 5.27719C12.5431 7.04163 10.6737 9.25888 8.84603 8.47219C6.86011 7.61746 3.61035 7.04163 3.61035 5.27719C3.61035 3.51257 6.86011 2.93674 8.84603 2.08202C10.6737 1.29532 12.5431 3.51257 12.5431 5.27719Z" fill="#4B5563"/>
</g>
</g>
</g>
<defs>
<clipPath id="clip0_22_1271">
<rect width="20" height="18" fill="white" transform="translate(0 0.780029)"/>
</clipPath>
<clipPath id="clip1_22_1271">
<rect width="20" height="18" fill="white" transform="translate(0 0.780029)"/>
</clipPath>
<clipPath id="clip2_22_1271">
<rect width="20" height="18" fill="white" transform="translate(0 0.780029)"/>
</clipPath>
</defs>
</svg>
