<svg width="20" height="19" viewBox="0 0 20 19" fill="none" xmlns="http://www.w3.org/2000/svg">
<g clip-path="url(#clip0_22_1258)">
<g clip-path="url(#clip1_22_1258)">
<g clip-path="url(#clip2_22_1258)">
<mask id="mask0_22_1258" style="mask-type:luminance" maskUnits="userSpaceOnUse" x="0" y="0" width="20" height="19">
<path d="M20 0.780029H0V18.064H20V0.780029Z" fill="white"/>
</mask>
<g mask="url(#mask0_22_1258)">
<path d="M14.8967 0.780029H5.10352C4.13426 0.780029 3.3457 1.4615 3.3457 2.29913V16.5449C3.3457 17.3825 4.13426 18.064 5.10352 18.064H14.8967C15.8659 18.064 16.6545 17.3825 16.6545 16.5449V2.29913C16.6545 1.4615 15.866 0.780029 14.8967 0.780029ZM10.0001 3.22895C11.0685 3.22895 11.9346 3.97743 11.9346 4.90073C11.9346 5.82404 11.0685 6.57252 10.0001 6.57252C8.93172 6.57252 8.06562 5.82404 8.06562 4.90073C8.06562 3.97743 8.93172 3.22895 10.0001 3.22895ZM10.0001 15.8186C7.45293 15.8186 5.38066 14.0277 5.38066 11.8265C5.38066 9.62529 7.45293 7.83441 10.0001 7.83441C12.5473 7.83441 14.6196 9.62526 14.6196 11.8265C14.6196 14.0278 12.5473 15.8186 10.0001 15.8186Z" fill="#4B5563"/>
<path d="M9.99965 10.1423C8.92504 10.1423 8.05078 10.8978 8.05078 11.8265C8.05078 12.7552 8.92504 13.5107 9.99965 13.5107C11.0743 13.5107 11.9485 12.7552 11.9485 11.8265C11.9485 10.8978 11.0743 10.1423 9.99965 10.1423Z" fill="#4B5563"/>
</g>
</g>
</g>
</g>
<defs>
<clipPath id="clip0_22_1258">
<rect width="20" height="18" fill="white" transform="translate(0 0.780029)"/>
</clipPath>
<clipPath id="clip1_22_1258">
<rect width="20" height="18" fill="white" transform="translate(0 0.780029)"/>
</clipPath>
<clipPath id="clip2_22_1258">
<rect width="20" height="18" fill="white" transform="translate(0 0.780029)"/>
</clipPath>
</defs>
</svg>
