<svg width="20" height="19" viewBox="0 0 20 19" fill="none" xmlns="http://www.w3.org/2000/svg">
<g clip-path="url(#clip0_22_1247)">
<g clip-path="url(#clip1_22_1247)">
<g clip-path="url(#clip2_22_1247)">
<path d="M6.51821 7.23807L1.54512 4.52368C-0.513314 7.33437 -0.516765 10.9371 1.54512 13.7525L6.51821 11.0381C5.67061 9.88083 5.6692 8.39735 6.51821 7.23807ZM3.18248 10.8603L2.96479 9.86133L4.12077 9.67318L4.33846 10.6722L3.18248 10.8603ZM4.12089 8.60211L2.96494 8.41385L3.18279 7.41488L4.33874 7.60318L4.12089 8.60211Z" fill="#4B5563"/>
<path d="M10.5874 10.1547C11.2371 10.1547 11.7637 9.69956 11.7637 9.13813C11.7637 8.57671 11.2371 8.12158 10.5874 8.12158C9.93778 8.12158 9.41113 8.57671 9.41113 9.13813C9.41113 9.69956 9.93778 10.1547 10.5874 10.1547Z" fill="#4B5563"/>
<path d="M17.2412 3.38772C13.2129 -0.0934837 6.58624 0.299108 3.125 4.18405L7.13886 6.37482C7.99873 5.57402 9.22628 5.07201 10.5871 5.07201C13.1815 5.07201 15.2923 6.89607 15.2923 9.13821C15.2923 11.3803 13.1815 13.2044 10.5871 13.2044C9.22628 13.2044 7.99873 12.7023 7.13886 11.9016L3.125 14.0923C6.59397 17.9859 13.2219 18.362 17.2412 14.8886C20.9187 11.7105 20.9192 6.5663 17.2412 3.38772ZM7.78747 4.6394L7.33617 3.70065L8.42244 3.31064L8.87374 4.24938L7.78747 4.6394ZM13.3757 4.63435L12.2885 4.2463L12.7375 3.3067L13.8248 3.69476L13.3757 4.63435ZM8.43667 14.9697L7.34942 14.5817L7.79845 13.6421L8.8857 14.0301L8.43667 14.9697ZM12.7517 14.9657L12.3004 14.027L13.3867 13.637L13.838 14.5757L12.7517 14.9657ZM16.8791 6.3288L17.3304 7.26755L16.2441 7.65757L15.7928 6.71882L16.8791 6.3288ZM16.8859 11.9361L15.7987 11.5481L16.2477 10.6085L17.3349 10.9965L16.8859 11.9361Z" fill="#4B5563"/>
<path d="M10.5875 12.1879C12.6356 12.1879 14.2626 10.6779 14.106 8.90399C13.9673 7.33315 12.444 6.08862 10.5875 6.08862C8.62436 6.08862 7.05859 7.47025 7.05859 9.13827C7.05859 10.82 8.63977 12.1879 10.5875 12.1879ZM10.5875 7.10517C11.8847 7.10517 12.9401 8.01722 12.9401 9.13827C12.9401 10.2593 11.8847 11.1713 10.5875 11.1713C9.29026 11.1713 8.23489 10.2593 8.23489 9.13827C8.23489 8.01722 9.29026 7.10517 10.5875 7.10517Z" fill="#4B5563"/>
</g>
</g>
</g>
<defs>
<clipPath id="clip0_22_1247">
<rect width="20" height="18" fill="white" transform="translate(0 0.780029)"/>
</clipPath>
<clipPath id="clip1_22_1247">
<rect width="20" height="18" fill="white" transform="translate(0 0.780029)"/>
</clipPath>
<clipPath id="clip2_22_1247">
<rect width="20" height="18" fill="white" transform="translate(0 -0.219971)"/>
</clipPath>
</defs>
</svg>
