<svg width="53" height="48" viewBox="0 0 53 48" fill="none" xmlns="http://www.w3.org/2000/svg">
<g id="atm-card-icon.svg" clip-path="url(#clip0_1_59)">
<path id="Vector" fill-rule="evenodd" clip-rule="evenodd" d="M47.9546 1.05005H5.36633C4.33326 1.05152 3.34298 1.46838 2.61295 2.20911C1.88292 2.94984 1.4728 3.95389 1.47266 5.00078V30.5973C1.4728 31.6442 1.88292 32.6483 2.61295 33.389C3.34298 34.1297 4.33326 34.5466 5.36633 34.548H21.1397C21.3358 34.548 21.5238 34.4692 21.6624 34.3287C21.8011 34.1882 21.8789 33.9977 21.8789 33.799C21.8789 33.6003 21.8011 33.4097 21.6624 33.2693C21.5238 33.1288 21.3358 33.0499 21.1397 33.0499H5.36633C4.72531 33.0487 4.11095 32.7897 3.65819 32.3299C3.20544 31.87 2.9513 31.2469 2.95159 30.5973V5.00078C2.9513 4.35119 3.20544 3.72806 3.65819 3.26821C4.11095 2.80836 4.72531 2.54937 5.36633 2.54819H47.9546C48.5955 2.54952 49.2098 2.80853 49.6625 3.26834C50.1152 3.72816 50.3694 4.35124 50.3692 5.00078V30.5973C50.3692 30.796 50.4472 30.9865 50.5858 31.127C50.7244 31.2675 50.9124 31.3464 51.1084 31.3464C51.3045 31.3464 51.4925 31.2675 51.6311 31.127C51.7698 30.9865 51.8477 30.796 51.8477 30.5973V5.00078C51.8475 3.95399 51.4375 2.95003 50.7076 2.20932C49.9777 1.4686 48.9875 1.05167 47.9546 1.05005ZM21.9282 27.4511H7.7323C7.53625 27.4511 7.34824 27.5301 7.20961 27.6706C7.07098 27.811 6.99308 28.0016 6.99308 28.2003C6.99308 28.399 7.07098 28.5895 7.20961 28.73C7.34824 28.8705 7.53625 28.9493 7.7323 28.9493H21.9282C22.0253 28.9493 22.1214 28.9299 22.2111 28.8923C22.3008 28.8547 22.3823 28.7995 22.4509 28.73C22.5196 28.6604 22.5739 28.5778 22.6111 28.487C22.6483 28.396 22.6674 28.2986 22.6674 28.2003C22.6674 28.1019 22.6483 28.0044 22.6111 27.9136C22.5739 27.8227 22.5196 27.7402 22.4509 27.6706C22.3823 27.601 22.3008 27.5458 22.2111 27.5081C22.1214 27.4705 22.0253 27.4511 21.9282 27.4511ZM16.3585 13.8011V10.5994C16.3574 9.97723 16.113 9.38069 15.6787 8.94072C15.2445 8.50076 14.6559 8.25323 14.0418 8.25236H9.30979C8.69573 8.25323 8.10708 8.50076 7.67281 8.94072C7.23855 9.38069 6.9941 9.97723 6.99308 10.5994V13.8011C6.9941 14.4234 7.23855 15.0199 7.67281 15.4599C8.10708 15.8999 8.69573 16.1474 9.30979 16.1482H14.0418C14.6559 16.1474 15.2445 15.8999 15.6787 15.4599C16.113 15.0199 16.3574 14.4234 16.3585 13.8011ZM8.47369 13.8011V12.9522H9.31141C9.5082 12.9522 9.69694 12.873 9.83604 12.7319C9.97522 12.591 10.0534 12.3997 10.0534 12.2003C10.0534 12.0009 9.97522 11.8097 9.83604 11.6687C9.69694 11.5276 9.5082 11.4484 9.31141 11.4484H8.47369V10.5994C8.47427 10.3745 8.56271 10.1589 8.7197 9.99982C8.87664 9.84073 9.08944 9.75119 9.31141 9.75054H10.9382V14.6501H9.31141C9.08911 14.65 8.87599 14.5605 8.71863 14.4014C8.56129 14.2423 8.47264 14.0264 8.47205 13.8011H8.47369ZM14.0434 14.6501H12.4166V9.75054H14.0434C14.2654 9.75119 14.4782 9.84073 14.6352 9.99982C14.7921 10.1589 14.8806 10.3745 14.8812 10.5994V11.4484H14.0434C13.8466 11.4484 13.658 11.5276 13.5188 11.6687C13.3797 11.8097 13.3015 12.0009 13.3015 12.2003C13.3015 12.3997 13.3797 12.591 13.5188 12.7319C13.658 12.873 13.8466 12.9522 14.0434 12.9522H14.8812V13.8011C14.8806 14.0264 14.7919 14.2423 14.6346 14.4014C14.4772 14.5605 14.2641 14.65 14.0418 14.6501H14.0434ZM6.99476 23.4005C7.00211 23.5942 7.08319 23.7775 7.221 23.9118C7.35883 24.0462 7.54267 24.1213 7.73394 24.1213C7.92521 24.1213 8.10905 24.0462 8.24687 23.9118C8.38469 23.7775 8.46576 23.5942 8.47312 23.4005V21.8025C8.47695 21.7017 8.46069 21.6012 8.42527 21.5069C8.38984 21.4127 8.33601 21.3266 8.26699 21.2538C8.19797 21.1812 8.11518 21.1233 8.02359 21.0839C7.932 21.0444 7.83348 21.0241 7.73394 21.0241C7.6344 21.0241 7.53588 21.0444 7.44429 21.0839C7.35269 21.1233 7.26991 21.1812 7.20089 21.2538C7.13187 21.3266 7.07804 21.4127 7.04261 21.5069C7.00719 21.6012 6.99093 21.7017 6.99476 21.8025V23.4005ZM9.36073 21.8025V23.4005C9.36812 23.5942 9.44921 23.7775 9.58701 23.9118C9.72481 24.0462 9.90868 24.1213 10.0999 24.1213C10.2912 24.1213 10.475 24.0462 10.6129 23.9118C10.7507 23.7775 10.8318 23.5942 10.8392 23.4005V21.8025C10.8392 21.6034 10.7611 21.4124 10.6221 21.2716C10.4832 21.1308 10.2948 21.0518 10.0982 21.0518C9.90178 21.0518 9.71336 21.1308 9.57442 21.2716C9.43548 21.4124 9.35748 21.6034 9.35748 21.8025H9.36073ZM11.7267 21.8025V23.4005C11.734 23.5942 11.8151 23.7775 11.953 23.9118C12.0908 24.0462 12.2747 24.1213 12.4659 24.1213C12.6572 24.1213 12.841 24.0462 12.9788 23.9118C13.1167 23.7775 13.1978 23.5942 13.2051 23.4005V21.8025C13.2051 21.704 13.186 21.6065 13.1488 21.5155C13.1116 21.4245 13.057 21.3418 12.9884 21.2722C12.9196 21.2026 12.8381 21.1473 12.7483 21.1096C12.6585 21.072 12.5622 21.0526 12.4651 21.0526C12.3679 21.0526 12.2717 21.072 12.1819 21.1096C12.0921 21.1473 12.0105 21.2026 11.9418 21.2722C11.8731 21.3418 11.8186 21.4245 11.7814 21.5155C11.7442 21.6065 11.725 21.704 11.725 21.8025H11.7267ZM14.0927 21.8025V23.4005C14.1 23.5942 14.1811 23.7775 14.3189 23.9118C14.4568 24.0462 14.6406 24.1213 14.8319 24.1213C15.0231 24.1213 15.207 24.0462 15.3448 23.9118C15.4826 23.7775 15.5637 23.5942 15.5711 23.4005V21.8025C15.5711 21.704 15.552 21.6065 15.5148 21.5155C15.4776 21.4245 15.423 21.3418 15.3544 21.2722C15.2856 21.2026 15.2041 21.1473 15.1143 21.1096C15.0245 21.072 14.9282 21.0526 14.831 21.0526C14.7339 21.0526 14.6377 21.072 14.5479 21.1096C14.4581 21.1473 14.3765 21.2026 14.3078 21.2722C14.2391 21.3418 14.1845 21.4245 14.1474 21.5155C14.1102 21.6065 14.091 21.704 14.091 21.8025H14.0927ZM18.7261 23.4005V21.8025C18.7299 21.7017 18.7137 21.6012 18.6782 21.5069C18.6428 21.4127 18.5889 21.3266 18.52 21.2538C18.4509 21.1812 18.3681 21.1233 18.2765 21.0839C18.185 21.0444 18.0864 21.0241 17.9869 21.0241C17.8874 21.0241 17.7889 21.0444 17.6972 21.0839C17.6057 21.1233 17.5229 21.1812 17.4539 21.2538C17.3848 21.3266 17.331 21.4127 17.2956 21.5069C17.2602 21.6012 17.2438 21.7017 17.2477 21.8025V23.4005C17.2591 23.5912 17.3419 23.7701 17.4792 23.9009C17.6164 24.0318 17.7976 24.1046 17.9861 24.1046C18.1745 24.1046 18.3558 24.0318 18.493 23.9009C18.6302 23.7701 18.713 23.5912 18.7245 23.4005H18.7261ZM21.0921 23.4005V21.8025C21.0959 21.7017 21.0796 21.6012 21.0442 21.5069C21.0087 21.4127 20.9549 21.3266 20.886 21.2538C20.8169 21.1812 20.7341 21.1233 20.6425 21.0839C20.551 21.0444 20.4524 21.0241 20.3529 21.0241C20.2533 21.0241 20.1548 21.0444 20.0632 21.0839C19.9717 21.1233 19.8889 21.1812 19.8198 21.2538C19.7508 21.3266 19.6969 21.4127 19.6615 21.5069C19.6261 21.6012 19.6098 21.7017 19.6137 21.8025V23.4005C19.6251 23.5912 19.7079 23.7701 19.8451 23.9009C19.9824 24.0318 20.1637 24.1046 20.3521 24.1046C20.5405 24.1046 20.7218 24.0318 20.859 23.9009C20.9962 23.7701 21.079 23.5912 21.0905 23.4005H21.0921ZM22.7183 21.0479C22.5216 21.0488 22.3333 21.1287 22.1947 21.2702C22.056 21.4117 21.9785 21.6031 21.9791 21.8025V23.4005C21.9865 23.5942 22.0676 23.7775 22.2054 23.9118C22.3432 24.0462 22.5271 24.1213 22.7183 24.1213C22.9096 24.1213 23.0934 24.0462 23.2312 23.9118C23.369 23.7775 23.4501 23.5942 23.4575 23.4005V21.8025C23.4581 21.603 23.3805 21.4115 23.2418 21.27C23.103 21.1285 22.9152 21.0486 22.7183 21.0479ZM25.8241 23.4005V21.8025C25.8279 21.7017 25.8116 21.6012 25.7762 21.5069C25.7407 21.4127 25.6869 21.3266 25.6179 21.2538C25.5489 21.1812 25.4661 21.1233 25.3745 21.0839C25.2829 21.0444 25.1844 21.0241 25.0848 21.0241C24.9853 21.0241 24.8868 21.0444 24.7951 21.0839C24.7036 21.1233 24.6208 21.1812 24.5518 21.2538C24.4827 21.3266 24.429 21.4127 24.3935 21.5069C24.3581 21.6012 24.3419 21.7017 24.3457 21.8025V23.4005C24.3571 23.5912 24.4398 23.7701 24.5771 23.9009C24.7143 24.0318 24.8956 24.1046 25.0841 24.1046C25.2724 24.1046 25.4538 24.0318 25.591 23.9009C25.7281 23.7701 25.8109 23.5912 25.8224 23.4005H25.8241ZM42.4347 16.1482C43.4679 16.1482 44.4589 15.7323 45.1895 14.992C45.9201 14.2515 46.3305 13.2474 46.3305 12.2003C46.3305 11.1532 45.9201 10.1491 45.1895 9.40872C44.4589 8.66829 43.4679 8.25236 42.4347 8.25236H37.7027C36.6694 8.25236 35.6785 8.66829 34.9479 9.40872C34.2173 10.1491 33.8068 11.1532 33.8068 12.2003C33.8068 13.2474 34.2173 14.2515 34.9479 14.992C35.6785 15.7323 36.6694 16.1482 37.7027 16.1482H42.4347ZM35.2874 12.1975C35.2884 11.5488 35.5432 10.9269 35.996 10.4682C36.4487 10.0095 37.0625 9.75144 37.7027 9.75054H42.4347C43.0758 9.75054 43.6906 10.0087 44.144 10.4681C44.5974 10.9275 44.8521 11.5506 44.8521 12.2003C44.8521 12.8501 44.5974 13.4732 44.144 13.9326C43.6906 14.392 43.0758 14.6501 42.4347 14.6501H37.7027C37.0613 14.6493 36.4465 14.3906 35.9933 13.9308C35.5401 13.4709 35.2857 12.8475 35.2857 12.1975H35.2874ZM36.1257 21.0479C33.6365 21.0453 31.2025 21.7908 29.1315 23.1903C27.0606 24.5898 25.4457 26.5804 24.4914 28.9101C23.537 31.2399 23.2859 33.804 23.7699 36.2783C24.254 38.7527 25.4513 41.026 27.2105 42.8107C28.9698 44.5953 31.2118 45.811 33.6529 46.304C36.0942 46.7971 38.6248 46.5454 40.9248 45.5807C43.2248 44.616 45.1907 42.9817 46.5739 40.8845C47.9571 38.7873 48.6954 36.3215 48.6954 33.799C48.6934 30.4198 47.3686 27.1795 45.0118 24.7889C42.6549 22.3985 39.4587 21.053 36.1241 21.0479H36.1257ZM36.1257 45.0519C33.9297 45.0542 31.7822 44.3964 29.9552 43.1618C28.128 41.9271 26.7033 40.171 25.8611 38.1157C25.0191 36.0604 24.7974 33.7981 25.2243 31.6151C25.6511 29.4321 26.7073 27.4264 28.2592 25.8518C29.811 24.2771 31.7888 23.2043 33.9425 22.7689C36.0961 22.3336 38.3288 22.5553 40.3581 23.4061C42.3874 24.2568 44.1221 25.6983 45.3428 27.5483C46.5635 29.3983 47.2154 31.5736 47.2159 33.799C47.2141 36.7807 46.0454 39.64 43.966 41.7496C41.8867 43.8591 39.0665 45.0468 36.1241 45.0519H36.1257ZM42.1691 27.6675C42.0295 27.5288 41.8417 27.4511 41.6462 27.4511C41.4507 27.4511 41.2629 27.5288 41.1232 27.6675L30.0824 38.8705C30.0137 38.9401 29.9592 39.0227 29.9219 39.1136C29.8848 39.2046 29.8656 39.3021 29.8656 39.4005C29.8656 39.4988 29.8848 39.5964 29.9219 39.6873C29.9592 39.7782 30.0137 39.8607 30.0824 39.9304C30.1506 40.0006 30.232 40.0565 30.3217 40.0946C30.4114 40.1327 30.5078 40.1523 30.605 40.1523C30.7023 40.1523 30.7986 40.1327 30.8883 40.0946C30.978 40.0565 31.0594 40.0006 31.1277 39.9304L42.1691 28.7329C42.3075 28.591 42.3851 28.3994 42.3848 28.1999C42.3845 28.0003 42.3064 27.809 42.1674 27.6675H42.1691ZM32.5765 32.95C33.2698 32.951 33.9478 32.7436 34.5247 32.354C35.1017 31.9643 35.5516 31.41 35.8176 30.7612C36.0836 30.1124 36.1537 29.3983 36.019 28.709C35.8844 28.0198 35.551 27.3866 35.0611 26.8895C34.5712 26.3923 33.9468 26.0536 33.2669 25.9161C32.587 25.7787 31.8821 25.8488 31.2415 26.1174C30.6009 26.386 30.0532 26.8412 29.668 27.4253C29.2827 28.0094 29.0771 28.6962 29.0771 29.3987C29.0771 30.3393 29.4452 31.2414 30.1008 31.9072C30.7563 32.5729 31.6457 32.9479 32.5738 32.95H32.5765ZM32.5765 27.3513C32.9777 27.3502 33.3701 27.4698 33.7041 27.695C34.0381 27.9202 34.2986 28.2407 34.4527 28.6161C34.6067 28.9914 34.6473 29.4047 34.5693 29.8034C34.4913 30.2022 34.2981 30.5686 34.0145 30.856C33.7309 31.1435 33.3694 31.3392 32.9759 31.4182C32.5823 31.4972 32.1746 31.4562 31.8042 31.3001C31.4338 31.144 31.1174 30.88 30.8951 30.5415C30.6729 30.203 30.555 29.8053 30.556 29.3987C30.5562 28.8562 30.7686 28.336 31.1469 27.9521C31.5252 27.5683 32.0384 27.3521 32.5738 27.3513H32.5765ZM40.4613 33.8489C39.768 33.848 39.09 34.0555 38.5131 34.4453C37.9363 34.8349 37.4865 35.3892 37.2205 36.0381C36.9547 36.6869 36.8847 37.4011 37.0194 38.0902C37.1541 38.7794 37.4874 39.4125 37.9774 39.9096C38.4673 40.4067 39.0917 40.7454 39.7716 40.8828C40.4515 41.0201 41.1564 40.9501 41.797 40.6814C42.4375 40.4128 42.9851 39.9577 43.3704 39.3736C43.7556 38.7895 43.9612 38.1026 43.9612 37.4002C43.9612 36.459 43.5927 35.5564 42.9364 34.8906C42.2801 34.2247 41.3899 33.8501 40.4613 33.8489ZM40.4613 39.4476C40.0617 39.4475 39.6711 39.3273 39.3389 39.1023C39.0067 38.8772 38.7478 38.5574 38.595 38.1833C38.4421 37.8091 38.4022 37.3975 38.4802 37.0003C38.5582 36.6032 38.7507 36.2384 39.0333 35.9521C39.3159 35.6658 39.6759 35.4709 40.0679 35.3919C40.4597 35.313 40.866 35.3536 41.2352 35.5085C41.6043 35.6635 41.9198 35.926 42.1418 36.2627C42.3638 36.5994 42.4823 36.9952 42.4823 37.4002C42.4821 37.9432 42.2692 38.464 41.8901 38.848C41.5111 39.2319 40.9972 39.4476 40.4613 39.4476Z" fill="#1C1C1C" stroke="#1C1C1C" stroke-width="0.56875"/>
</g>
<defs>
<clipPath id="clip0_1_59">
<rect width="52" height="47.125" fill="white" transform="translate(0.660156 0.237549)"/>
</clipPath>
</defs>
</svg>
