<svg width="40" height="41" viewBox="0 0 40 41" fill="none" xmlns="http://www.w3.org/2000/svg">
<g clip-path="url(#clip0_76_179)">
<path d="M20 40.9199C31.0457 40.9199 40 31.9656 40 20.9199C40 9.87423 31.0457 0.919922 20 0.919922C8.9543 0.919922 0 9.87423 0 20.9199C0 31.9656 8.9543 40.9199 20 40.9199Z" fill="#3B5998"/>
<path d="M20 31.9199C26.0751 31.9199 31 26.995 31 20.9199C31 14.8448 26.0751 9.91992 20 9.91992C13.9249 9.91992 9 14.8448 9 20.9199C9 26.995 13.9249 31.9199 20 31.9199Z" fill="#3B5998"/>
<path d="M22.7651 21.3487H20.8023V28.5396H17.8284V21.3487H16.4141V18.8216H17.8284V17.1862C17.8284 16.0168 18.3839 14.1855 20.8287 14.1855L23.0315 14.1947V16.6478H21.4333C21.1711 16.6478 20.8025 16.7788 20.8025 17.3366V18.8239H23.0249L22.7651 21.3487Z" fill="white"/>
</g>
<defs>
<clipPath id="clip0_76_179">
<rect width="40" height="40" fill="white" transform="translate(0 0.919922)"/>
</clipPath>
</defs>
</svg>
