<svg width="40" height="41" viewBox="0 0 40 41" fill="none" xmlns="http://www.w3.org/2000/svg">
<g clip-path="url(#clip0_76_183)">
<path d="M20 40.9199C31.0457 40.9199 40 31.9656 40 20.9199C40 9.87423 31.0457 0.919922 20 0.919922C8.9543 0.919922 0 9.87423 0 20.9199C0 31.9656 8.9543 40.9199 20 40.9199Z" fill="#0077B5"/>
<path d="M16.4792 15.1048C16.4792 15.5362 16.3513 15.9579 16.1117 16.3165C15.872 16.6752 15.5314 16.9548 15.1329 17.1198C14.7343 17.2849 14.2958 17.3281 13.8727 17.2439C13.4496 17.1598 13.061 16.9521 12.756 16.647C12.451 16.342 12.2433 15.9534 12.1591 15.5303C12.0749 15.1072 12.1181 14.6687 12.2832 14.2702C12.4483 13.8717 12.7278 13.531 13.0865 13.2914C13.4452 13.0517 13.8668 12.9238 14.2982 12.9238C14.8767 12.9238 15.4314 13.1536 15.8404 13.5626C16.2494 13.9716 16.4792 14.5264 16.4792 15.1048Z" fill="white"/>
<path d="M15.9846 18.7401V28.3758C15.985 28.4469 15.9713 28.5174 15.9444 28.5832C15.9174 28.649 15.8778 28.7088 15.8276 28.7592C15.7775 28.8096 15.7179 28.8496 15.6523 28.8769C15.5866 28.9042 15.5162 28.9182 15.4452 28.9182H13.1464C13.0753 28.9184 13.0049 28.9045 12.9391 28.8774C12.8734 28.8503 12.8137 28.8105 12.7635 28.7602C12.7132 28.7099 12.6734 28.6502 12.6463 28.5845C12.6191 28.5188 12.6053 28.4484 12.6055 28.3773V18.7401C12.6055 18.5966 12.6625 18.4591 12.7639 18.3576C12.8653 18.2562 13.0029 18.1992 13.1464 18.1992H15.4452C15.5884 18.1996 15.7256 18.2567 15.8267 18.3581C15.9278 18.4595 15.9846 18.5969 15.9846 18.7401Z" fill="white"/>
<path d="M28.0014 23.7563V28.4208C28.0016 28.4862 27.9889 28.5509 27.964 28.6113C27.9391 28.6718 27.9024 28.7266 27.8562 28.7729C27.81 28.8191 27.7551 28.8557 27.6947 28.8806C27.6343 28.9055 27.5695 28.9183 27.5042 28.9181H25.0323C24.967 28.9183 24.9022 28.9055 24.8418 28.8806C24.7814 28.8557 24.7265 28.8191 24.6803 28.7729C24.6341 28.7266 24.5975 28.6718 24.5725 28.6113C24.5476 28.5509 24.5349 28.4862 24.5351 28.4208V23.9003C24.5351 23.2256 24.7328 20.9457 22.7713 20.9457C21.2519 20.9457 20.9422 22.5059 20.8811 23.2067V28.4208C20.8811 28.5514 20.8298 28.6768 20.7381 28.7699C20.6464 28.8629 20.5217 28.9162 20.3911 28.9181H18.0036C17.9384 28.9181 17.8738 28.9052 17.8136 28.8802C17.7533 28.8552 17.6986 28.8185 17.6525 28.7723C17.6065 28.7262 17.57 28.6713 17.5451 28.611C17.5203 28.5507 17.5076 28.486 17.5078 28.4208V18.6978C17.5076 18.6326 17.5203 18.5679 17.5451 18.5076C17.57 18.4473 17.6065 18.3925 17.6525 18.3463C17.6986 18.3001 17.7533 18.2634 17.8136 18.2384C17.8738 18.2134 17.9384 18.2005 18.0036 18.2005H20.3911C20.523 18.2005 20.6495 18.2529 20.7428 18.3462C20.836 18.4394 20.8884 18.5659 20.8884 18.6978V19.5382C21.4526 18.692 22.2886 18.0391 24.0727 18.0391C28.0247 18.0391 28.0014 21.7294 28.0014 23.7563Z" fill="white"/>
</g>
<defs>
<clipPath id="clip0_76_183">
<rect width="40" height="40" fill="white" transform="translate(0 0.919922)"/>
</clipPath>
</defs>
</svg>
