<svg width="52" height="53" viewBox="0 0 52 53" fill="none" xmlns="http://www.w3.org/2000/svg">
<g id="location-icon.svg">
<path id="Vector" fill-rule="evenodd" clip-rule="evenodd" d="M20.1878 11.7381C19.0511 11.7362 17.9394 12.0718 16.9934 12.7024C16.0473 13.3329 15.3096 14.2301 14.8735 15.2805C14.4373 16.3307 14.3224 17.4868 14.5433 18.6024C14.7641 19.7181 15.3108 20.7431 16.1142 21.5477C16.9175 22.3524 17.9414 22.9005 19.0562 23.1226C20.171 23.3448 21.3267 23.2311 22.3768 22.7959C23.427 22.3606 24.3245 21.6234 24.9558 20.6776C25.5871 19.7318 25.9238 18.6199 25.9231 17.4826C25.9225 15.9603 25.3182 14.5005 24.2429 13.4235C23.1677 12.3465 21.7093 11.7404 20.1878 11.7381ZM20.1878 21.593C19.3756 21.5947 18.5812 21.3554 17.9051 20.9053C17.2289 20.4551 16.7014 19.8145 16.3893 19.0643C16.0771 18.3141 15.9944 17.4881 16.1515 16.6909C16.3087 15.8937 16.6987 15.1611 17.2721 14.5857C17.8456 14.0102 18.5768 13.6179 19.3731 13.4584C20.1694 13.2989 20.9952 13.3792 21.7459 13.6893C22.4965 13.9995 23.1384 14.5254 23.5902 15.2006C24.0421 15.8759 24.2835 16.67 24.2842 17.4826C24.2842 18.5706 23.853 19.6144 23.0851 20.3848C22.3172 21.1553 21.2753 21.5898 20.1878 21.593ZM31.1515 6.49871C29.6947 5.03576 27.9635 3.87494 26.0573 3.0829C24.151 2.29085 22.1073 1.88318 20.0432 1.88318C17.9791 1.88318 15.9353 2.29085 14.0291 3.0829C12.1228 3.87494 10.3916 5.03576 8.93476 6.49871C3.44319 12 2.76308 22.3539 7.4567 28.6286L20.0432 46.8415L32.6104 28.6536C37.3251 22.3539 36.6425 12 31.1515 6.49871ZM31.2819 27.6931L20.0432 43.9599L8.78642 27.668C4.5273 21.9734 5.1376 12.6237 10.0956 7.65884C11.4013 6.34993 12.9521 5.31146 14.6595 4.60293C16.3668 3.89441 18.197 3.52976 20.0454 3.52976C21.8937 3.52976 23.7239 3.89441 25.4312 4.60293C27.1386 5.31146 28.6894 6.34993 29.9952 7.65884C34.9493 12.6237 35.5597 21.9734 31.2819 27.6931Z" fill="#1C1C1C" stroke="#1C1C1C" stroke-width="0.742857"/>
<path id="Vector_2" d="M33.5832 29.5084C37.4722 29.5084 40.6249 27.8108 40.6249 25.7167C40.6249 23.6226 37.4722 21.925 33.5832 21.925C29.6942 21.925 26.5415 23.6226 26.5415 25.7167C26.5415 27.8108 29.6942 29.5084 33.5832 29.5084Z" fill="#EDF0F1"/>
<path id="Vector_3" d="M22.6761 43.7314C25.0832 44.9375 27.7951 44.3976 28.7332 42.5255C29.6714 40.6533 28.4806 38.1578 26.0735 36.9516C23.6663 35.7454 20.9545 36.2853 20.0164 38.1575C19.0782 40.0296 20.269 42.5252 22.6761 43.7314Z" fill="#EDF0F1"/>
<path id="Vector_4" d="M29.521 38.7165C32.6621 38.7165 35.2085 36.2914 35.2085 33.2999C35.2085 30.3083 32.6621 27.8832 29.521 27.8832C26.3799 27.8832 23.8335 30.3083 23.8335 33.2999C23.8335 36.2914 26.3799 38.7165 29.521 38.7165Z" fill="#EDF0F1"/>
<path id="Vector_5" fill-rule="evenodd" clip-rule="evenodd" d="M45.2932 47.253L39.4844 41.4819C41.0978 39.6474 41.9872 37.287 41.9859 34.8432C41.9955 32.5203 41.2101 30.2642 39.7603 28.4501C38.3106 26.636 36.2838 25.3734 34.0174 24.8725C31.7509 24.3715 29.3814 24.6623 27.303 25.6965C25.2246 26.7307 23.5627 28.4459 22.5939 30.5568C21.625 32.6677 21.4077 35.047 21.9778 37.2988C22.548 39.5505 23.8714 41.539 25.7279 42.9333C27.5843 44.3277 29.8618 45.0437 32.1816 44.9625C34.5012 44.8812 36.7232 44.0076 38.4776 42.4867L44.2859 48.2578C44.42 48.3907 44.6009 48.4656 44.7895 48.4665C44.8832 48.4673 44.9761 48.4493 45.0625 48.4134C45.1491 48.3776 45.2275 48.3247 45.2932 48.2578C45.4256 48.1242 45.4999 47.9436 45.4999 47.7554C45.4999 47.5672 45.4256 47.3867 45.2932 47.253ZM23.0293 34.8432C23.0177 33.1067 23.5216 31.4058 24.4772 29.9563C25.4327 28.5067 26.7969 27.3739 28.3966 26.7013C29.9964 26.0287 31.7597 25.8466 33.463 26.1783C35.1662 26.51 36.7327 27.3405 37.9637 28.5643C39.1948 29.7882 40.035 31.3503 40.3777 33.0527C40.7205 34.755 40.5504 36.5209 39.889 38.1264C39.2276 39.7318 38.1047 41.1046 36.6627 42.0705C35.2207 43.0364 33.5246 43.5521 31.7893 43.5521C29.4737 43.559 27.2501 42.6457 25.607 41.0127C23.9638 39.3797 23.0357 37.1607 23.0266 34.8432H23.0293Z" fill="#1C1C1C" stroke="#1C1C1C" stroke-width="0.742857"/>
</g>
</svg>
