<svg width="20" height="19" viewBox="0 0 20 19" fill="none" xmlns="http://www.w3.org/2000/svg">
<g clip-path="url(#clip0_22_1232)">
<g clip-path="url(#clip1_22_1232)">
<g clip-path="url(#clip2_22_1232)">
<mask id="mask0_22_1232" style="mask-type:luminance" maskUnits="userSpaceOnUse" x="0" y="0" width="20" height="19">
<path d="M20 0.780029H0V18.064H20V0.780029Z" fill="white"/>
</mask>
<g mask="url(#mask0_22_1232)">
<path d="M6.82848 15.9058C7.52874 15.7628 7.96223 15.1562 7.7967 14.5511C7.63117 13.9459 6.9293 13.5713 6.22904 13.7143C5.52877 13.8574 5.09529 14.4639 5.26082 15.0691C5.42635 15.6743 6.12821 16.0489 6.82848 15.9058Z" fill="#4B5563"/>
<path d="M6.52619 13.4212C6.81434 13.4169 7.09828 13.4815 7.34668 13.6077C7.59509 13.734 7.79833 13.9171 7.934 14.1369C8.15062 13.9823 8.32704 13.7899 8.4517 13.5723C8.57637 13.3548 8.64648 13.1169 8.65744 12.8743C8.68849 12.312 8.51944 11.755 8.17306 11.2783C7.8009 10.7692 7.46839 10.2393 7.17775 9.69208C6.68139 8.7609 6.32385 7.77903 6.11369 6.77001C6.07619 6.59177 6.03556 6.42028 5.99181 6.25825C5.91789 5.97685 5.73553 5.72551 5.47463 5.54543C5.21373 5.36535 4.88978 5.26721 4.55588 5.26712C4.48869 5.26712 4.42775 5.27252 4.36213 5.27792L4.33713 5.27927C4.2725 5.28801 4.2085 5.29986 4.14541 5.31479V4.76345C4.49064 4.75912 4.82258 4.64771 5.08071 4.44954C5.33885 4.25138 5.50598 3.97964 5.55166 3.68388L5.78088 2.18436C5.83055 1.85778 5.72834 1.5275 5.49665 1.26594C5.26496 1.00438 4.92271 0.832898 4.54494 0.78909C4.484 0.782339 3.21838 0.650548 2.92931 1.85854L2.69963 3.35913C2.65263 3.67007 2.74328 3.98488 2.95342 4.24053C3.16356 4.49617 3.47769 4.67378 3.83291 4.7378V5.4166C3.46208 5.57056 3.16791 5.83488 3.00433 6.16109C2.84074 6.48731 2.81872 6.85355 2.94228 7.19266L5.3251 13.8848C5.47553 13.738 5.66051 13.6207 5.86766 13.5408C6.0748 13.4608 6.29933 13.4201 6.52619 13.4212Z" fill="#4B5563"/>
<path d="M17.2795 14.222C17.2515 14.0163 17.1755 13.8178 17.0559 13.6383C16.9364 13.4589 16.7759 13.3023 16.5842 13.1782C16.3944 13.0508 16.1771 12.9574 15.945 12.9036C15.7129 12.8498 15.4707 12.8366 15.2326 12.8649L8.76855 13.6103C8.61813 13.9207 8.37493 14.191 8.06387 14.3934C8.11586 14.5303 8.14223 14.6734 8.14199 14.8174C8.14154 15.1877 7.97119 15.5426 7.66831 15.8044C7.36544 16.0662 6.95476 16.2136 6.52637 16.2141C6.47324 16.2141 6.42168 16.2114 6.37012 16.2073V16.7798H16.1139C16.1139 16.7798 17.5437 16.253 17.2795 14.222Z" fill="#4B5563"/>
<path d="M6.37012 17.0496V17.2373C6.37037 17.456 6.47103 17.6657 6.65001 17.8204C6.829 17.9751 7.07168 18.0621 7.3248 18.0623H15.2701C15.523 18.0618 15.7653 17.9747 15.944 17.82C16.1227 17.6654 16.2231 17.4558 16.2232 17.2373V17.0415L16.2092 17.0496H6.37012Z" fill="#4B5563"/>
</g>
</g>
</g>
</g>
<defs>
<clipPath id="clip0_22_1232">
<rect width="20" height="18" fill="white" transform="translate(0 0.780029)"/>
</clipPath>
<clipPath id="clip1_22_1232">
<rect width="20" height="18" fill="white" transform="translate(0 0.780029)"/>
</clipPath>
<clipPath id="clip2_22_1232">
<rect width="20" height="18" fill="white" transform="translate(0 0.780029)"/>
</clipPath>
</defs>
</svg>
