<svg width="53" height="46" viewBox="0 0 53 46" fill="none" xmlns="http://www.w3.org/2000/svg">
<g id="briefcase-icon.svg" clip-path="url(#clip0_1_66)">
<path id="Vector" fill-rule="evenodd" clip-rule="evenodd" d="M47.7115 44.3313H4.94869C3.9399 44.3291 2.97302 43.9201 2.2597 43.1938C1.54637 42.4674 1.14471 41.4829 1.14258 40.4557V12.6234C1.14471 11.5962 1.54637 10.6117 2.2597 9.88528C2.97302 9.15899 3.9399 8.74997 4.94869 8.74778H8.33809V6.98726C8.34004 6.80204 8.41362 6.62507 8.54283 6.49469C8.67202 6.3643 8.84654 6.291 9.02846 6.29068H13.8793C14.0608 6.29068 14.2348 6.36404 14.3631 6.49469C14.4914 6.62532 14.5635 6.80252 14.5635 6.98726V8.74778H19.1346V6.22095C19.1364 4.90812 19.6493 3.64958 20.561 2.72126C21.4726 1.79294 22.7086 1.27064 23.9979 1.2688H28.6623C29.9516 1.27064 31.1875 1.79294 32.0992 2.72126C33.0109 3.64958 33.5238 4.90812 33.5256 6.22095V8.74778H38.0967V6.98726C38.0967 6.80252 38.1688 6.62532 38.2971 6.49469C38.4254 6.36404 38.5994 6.29068 38.7808 6.29068H43.6317C43.8136 6.291 43.9881 6.3643 44.1173 6.49469C44.2465 6.62507 44.3201 6.80204 44.3221 6.98726V8.74778H47.7115C48.7202 8.74997 49.6871 9.15899 50.4005 9.88528C51.1138 10.6117 51.5155 11.5962 51.5176 12.6234V40.4557C51.5155 41.4829 51.1138 42.4674 50.4005 43.1938C49.6871 43.9201 48.7202 44.3291 47.7115 44.3313ZM4.94869 10.141C4.30242 10.1419 3.68288 10.4038 3.2259 10.8691C2.76892 11.3345 2.51175 11.9654 2.51075 12.6234V40.4557C2.51175 41.1137 2.76892 41.7446 3.2259 42.2099C3.68288 42.6753 4.30242 42.9371 4.94869 42.9381H47.7115C48.3578 42.9371 48.9773 42.6753 49.4342 42.2099C49.8913 41.7446 50.1484 41.1137 50.1494 40.4557V12.6234C50.1484 11.9654 49.8913 11.3345 49.4342 10.8691C48.9773 10.4038 48.3578 10.1419 47.7115 10.141H4.94869ZM39.4649 8.74778H42.9476V7.69019H39.4649V8.74778ZM20.509 8.74778H32.1512V6.22095C32.1518 5.27794 31.7846 4.37328 31.1304 3.70588C30.4761 3.03847 29.5884 2.66298 28.6623 2.66197H23.9979C23.0718 2.66298 22.1841 3.03847 21.5297 3.70588C20.8755 4.37328 20.5084 5.27794 20.509 6.22095V8.74778ZM9.71258 8.74778H13.1953V7.69019H9.71258V8.74778ZM23.6869 35.0096H17.8099C17.6284 35.0096 17.4544 34.9361 17.3261 34.8055C17.1978 34.6748 17.1258 34.4977 17.1258 34.313V28.3221C17.1258 28.1374 17.1978 27.9602 17.3261 27.8296C17.4544 27.6989 17.6284 27.6256 17.8099 27.6256H23.6869C23.8684 27.6256 24.0424 27.6989 24.1707 27.8296C24.299 27.9602 24.3711 28.1374 24.3711 28.3221V34.313C24.3711 34.4977 24.299 34.6748 24.1707 34.8055C24.0424 34.9361 23.8684 35.0096 23.6869 35.0096ZM18.494 33.6163H23.0029V29.0188H18.494V33.6163ZM26.8338 26.2767C26.6526 26.2753 26.4788 26.2027 26.3488 26.0741L23.2019 22.8697C23.0744 22.7381 23.003 22.5606 23.003 22.3758C23.003 22.1908 23.0744 22.0135 23.2019 21.8818L26.3488 18.6774C26.4804 18.5523 26.6538 18.4827 26.8338 18.4827C27.014 18.4827 27.1873 18.5523 27.3189 18.6774L30.4596 21.8818C30.5245 21.946 30.5761 22.0227 30.6114 22.1076C30.6466 22.1924 30.6648 22.2836 30.6648 22.3758C30.6648 22.4678 30.6466 22.5591 30.6114 22.6439C30.5761 22.7287 30.5245 22.8056 30.4596 22.8697L27.3189 26.0741C27.1889 26.2027 27.0152 26.2753 26.8338 26.2767ZM24.6571 22.3758L26.8338 24.5922L29.0106 22.3758L26.8338 20.1593L24.6571 22.3758ZM11.2051 26.2514C10.8592 26.2519 10.5239 26.1294 10.257 25.9052C9.99022 25.6809 9.80862 25.3688 9.74362 25.0228L9.32697 22.7431C9.32413 22.7242 9.31617 22.7066 9.30414 22.6921C9.29203 22.6775 9.27635 22.6667 9.25856 22.6608L7.17511 21.7235C6.9233 21.6086 6.70797 21.4245 6.55312 21.1919C6.39827 20.9593 6.31012 20.6874 6.29849 20.4067C6.28687 20.1259 6.35223 19.8475 6.4873 19.6025C6.62237 19.3574 6.8218 19.1556 7.06321 19.0194L9.06575 17.9049C9.08095 17.8952 9.09387 17.8822 9.10353 17.8669C9.1132 17.8516 9.11938 17.8343 9.12173 17.8162L9.35183 15.5111C9.37832 15.2297 9.48208 14.9615 9.65132 14.7374C9.82048 14.5133 10.0483 14.3422 10.3086 14.2438C10.5687 14.1453 10.851 14.1234 11.1228 14.1807C11.3947 14.2379 11.6452 14.372 11.8457 14.5675L13.5 16.157C13.5226 16.1766 13.5512 16.1878 13.5808 16.1887L15.8322 15.6947C16.1023 15.6365 16.383 15.6561 16.6428 15.7516C16.9026 15.847 17.131 16.0145 17.3023 16.235C17.4737 16.4556 17.5811 16.7204 17.6125 16.9998C17.644 17.2792 17.5981 17.5619 17.4802 17.8162L16.5038 19.9123C16.497 19.9296 16.4941 19.9483 16.4952 19.9669C16.4962 19.9855 16.5013 20.0036 16.51 20.02L17.6544 22.0274C17.7935 22.2707 17.863 22.5487 17.855 22.83C17.847 23.1114 17.7618 23.3849 17.609 23.6195C17.4563 23.8541 17.2421 24.0404 16.9907 24.1575C16.7394 24.2746 16.4608 24.3176 16.1867 24.2819L13.923 23.9843C13.9055 23.9825 13.8879 23.9851 13.8717 23.9917C13.8554 23.9983 13.8411 24.0088 13.8296 24.0223L12.3059 25.7511C12.1677 25.9092 11.9981 26.0355 11.8083 26.1217C11.6185 26.208 11.413 26.2521 11.2051 26.2514ZM10.832 15.5491C10.8034 15.5479 10.7755 15.5577 10.7536 15.5764C10.7318 15.5951 10.7176 15.6215 10.7138 15.6504L10.4837 17.9619C10.4595 18.205 10.3771 18.4384 10.2438 18.6415C10.1104 18.8446 9.93017 19.0114 9.71876 19.1271L7.7224 20.2416C7.7028 20.2508 7.68673 20.2664 7.67662 20.2859C7.66651 20.3053 7.66295 20.3276 7.66645 20.3493C7.6656 20.3698 7.67114 20.39 7.68231 20.4071C7.69349 20.4242 7.70971 20.4372 7.72862 20.4443L9.81203 21.3878C10.0326 21.4844 10.2264 21.6349 10.3762 21.826C10.5259 22.0171 10.6269 22.2429 10.6703 22.4834L11.0932 24.7632C11.0983 24.7897 11.1122 24.8136 11.1326 24.8309C11.153 24.8482 11.1787 24.8578 11.2051 24.8582C11.2205 24.8579 11.2356 24.8545 11.2495 24.8479C11.2634 24.8414 11.2759 24.8319 11.286 24.8202L12.8097 23.0913C12.9689 22.9093 13.1694 22.7697 13.3939 22.6847C13.6183 22.5997 13.8597 22.5719 14.097 22.6037L16.3608 22.9014C16.3833 22.9022 16.4056 22.8967 16.4254 22.8854C16.4451 22.8743 16.4615 22.858 16.4727 22.8381C16.4826 22.8219 16.4877 22.8032 16.4877 22.7842C16.4877 22.7652 16.4826 22.7466 16.4727 22.7304L15.3285 20.7229C15.207 20.5112 15.138 20.2727 15.1272 20.0278C15.1163 19.7829 15.164 19.539 15.2662 19.317L16.2426 17.2209C16.2516 17.2018 16.255 17.1806 16.2526 17.1596C16.2502 17.1385 16.2421 17.1186 16.2291 17.1021C16.2161 17.0857 16.1989 17.0732 16.1793 17.0662C16.1597 17.0592 16.1385 17.0579 16.1183 17.0626L13.8918 17.5502C13.6563 17.6005 13.4124 17.5922 13.1807 17.5261C12.949 17.46 12.7364 17.3379 12.5609 17.1702L10.9066 15.5807C10.897 15.5703 10.8855 15.5622 10.8727 15.5568C10.8598 15.5513 10.8459 15.5487 10.832 15.5491ZM39.9313 21.0712C39.2588 21.0719 38.6013 20.8693 38.0419 20.4893C37.4825 20.1092 37.0465 19.5687 36.7888 18.9363C36.5312 18.3038 36.4636 17.6077 36.5946 16.936C36.7257 16.2644 37.0494 15.6474 37.5249 15.1632C38.0004 14.679 38.6063 14.3494 39.2659 14.2159C39.9255 14.0825 40.6091 14.1512 41.2303 14.4136C41.8514 14.6759 42.3822 15.1201 42.7554 15.6896C43.1287 16.2593 43.3276 16.9288 43.3269 17.6136C43.3258 18.5303 42.9677 19.409 42.3311 20.0571C41.6946 20.7053 40.8316 21.0701 39.9313 21.0712ZM39.9313 15.5491C39.5304 15.5491 39.1383 15.6701 38.805 15.897C38.4715 16.1238 38.2117 16.4463 38.0582 16.8235C37.9048 17.2008 37.8646 17.6159 37.9428 18.0164C38.0211 18.4168 38.2142 18.7846 38.4977 19.0733C38.7812 19.362 39.1425 19.5587 39.5358 19.6384C39.9291 19.718 40.3368 19.6771 40.7072 19.5209C41.0777 19.3646 41.3943 19.1 41.6171 18.7605C41.8398 18.4211 41.9588 18.0219 41.9588 17.6136C41.9586 17.0661 41.745 16.541 41.3648 16.154C40.9847 15.7668 40.469 15.5493 39.9313 15.5491Z" fill="#1C1C1C" stroke="#1C1C1C" stroke-width="0.65"/>
</g>
<defs>
<clipPath id="clip0_1_66">
<rect width="52" height="44.6875" fill="white" transform="translate(0.330078 0.456299)"/>
</clipPath>
</defs>
</svg>
