<svg width="40" height="41" viewBox="0 0 40 41" fill="none" xmlns="http://www.w3.org/2000/svg">
<g clip-path="url(#clip0_76_188)">
<path d="M20 40.9199C31.0457 40.9199 40 31.9656 40 20.9199C40 9.87423 31.0457 0.919922 20 0.919922C8.9543 0.919922 0 9.87423 0 20.9199C0 31.9656 8.9543 40.9199 20 40.9199Z" fill="#E74D4D"/>
<path d="M29.5577 15.862L29.5827 16.0254C29.3411 15.1679 28.6886 14.5062 27.8594 14.2654L27.8419 14.2612C26.2827 13.8379 20.0086 13.8379 20.0086 13.8379C20.0086 13.8379 13.7502 13.8295 12.1752 14.2612C11.3302 14.5062 10.6769 15.1679 10.4394 16.0079L10.4352 16.0254C9.85275 19.0679 9.84858 22.7237 10.4611 25.9812L10.4352 25.8162C10.6769 26.6737 11.3294 27.3354 12.1586 27.5762L12.1761 27.5804C13.7336 28.0045 20.0094 28.0045 20.0094 28.0045C20.0094 28.0045 26.2669 28.0045 27.8427 27.5804C28.6886 27.3354 29.3419 26.6737 29.5794 25.8337L29.5836 25.8162C29.8486 24.4012 30.0002 22.7729 30.0002 21.1095C30.0002 21.0487 30.0002 20.987 29.9994 20.9254C30.0002 20.8687 30.0002 20.8012 30.0002 20.7337C30.0002 19.0695 29.8486 17.4412 29.5577 15.862ZM18.0069 23.9637V17.8862L23.2286 20.9295L18.0069 23.9637Z" fill="white"/>
</g>
<defs>
<clipPath id="clip0_76_188">
<rect width="40" height="40" fill="white" transform="translate(0 0.919922)"/>
</clipPath>
</defs>
</svg>
